<?xml version="1.0" encoding="UTF-8" standalone="no"?>
<!-- Created with Inkscape (http://www.inkscape.org/) -->

<svg
   width="152.39999mm"
   height="101.60001mm"
   viewBox="0 0 152.39999 101.60001"
   version="1.1"
   id="svg5"
   xml:space="preserve"
   inkscape:version="1.2.2 (732a01da63, 2022-12-09)"
   sodipodi:docname="SnowPackDepth-edited.svg"
   xmlns:inkscape="http://www.inkscape.org/namespaces/inkscape"
   xmlns:sodipodi="http://sodipodi.sourceforge.net/DTD/sodipodi-0.dtd"
   xmlns:xlink="http://www.w3.org/1999/xlink"
   xmlns="http://www.w3.org/2000/svg"
   xmlns:svg="http://www.w3.org/2000/svg"><sodipodi:namedview
     id="namedview7"
     pagecolor="#505050"
     bordercolor="#ffffff"
     borderopacity="1"
     inkscape:showpageshadow="0"
     inkscape:pageopacity="0"
     inkscape:pagecheckerboard="1"
     inkscape:deskcolor="#505050"
     inkscape:document-units="mm"
     showgrid="false"
     inkscape:zoom="1.6819304"
     inkscape:cx="162.31349"
     inkscape:cy="131.39664"
     inkscape:window-width="2256"
     inkscape:window-height="1398"
     inkscape:window-x="-11"
     inkscape:window-y="-11"
     inkscape:window-maximized="1"
     inkscape:current-layer="matplotlib.axis_1"><inkscape:page
       x="0"
       y="0"
       width="152.39998"
       height="101.60001"
       id="page1096"
       inkscape:export-filename="SnowPackDepth-edited.png"
       inkscape:export-xdpi="200"
       inkscape:export-ydpi="200" /><inkscape:page
       x="188.45657"
       y="-6.9216094"
       width="152.39999"
       height="101.6"
       id="page1098" /></sodipodi:namedview><defs
     id="defs2"><style
       type="text/css"
       id="style598">*{stroke-linejoin: round; stroke-linecap: butt}</style><path
       id="mbf5ea5411c"
       d="M 0,0 V 3.5"
       style="stroke:#000000;stroke-width:0.8" /><path
       id="DejaVuSans-42"
       d="M 1259,2228 V 519 h 1013 q 509,0 754,211 246,211 246,645 0,438 -246,645 -245,208 -754,208 z m 0,1919 V 2741 h 935 q 462,0 688,173 227,174 227,530 0,353 -227,528 -226,175 -688,175 z m -631,519 h 1613 q 722,0 1112,-300 391,-300 391,-853 0,-429 -200,-682 -200,-253 -588,-315 466,-100 724,-418 258,-317 258,-792 0,-625 -425,-966 Q 3088,0 2303,0 H 628 Z"
       transform="scale(0.015625)" /><path
       id="DejaVuSans-65"
       d="M 3597,1894 V 1613 H 953 q 38,-594 358,-905 320,-311 892,-311 331,0 642,81 311,81 618,244 V 178 Q 3153,47 2828,-22 2503,-91 2169,-91 1331,-91 842,396 353,884 353,1716 q 0,859 464,1363 464,505 1252,505 706,0 1117,-455 411,-454 411,-1235 z m -575,169 q -6,471 -264,752 -258,282 -683,282 -481,0 -770,-272 -289,-272 -333,-766 z"
       transform="scale(0.015625)" /><path
       id="DejaVuSans-66"
       d="m 2375,4863 v -479 h -550 q -309,0 -430,-125 -120,-125 -120,-450 v -309 h 947 V 3053 H 1275 V 0 H 697 V 3053 H 147 v 447 h 550 v 244 q 0,584 272,851 272,268 862,268 z"
       transform="scale(0.015625)" /><path
       id="DejaVuSans-6f"
       d="m 1959,3097 q -462,0 -731,-361 -269,-361 -269,-989 0,-628 267,-989 268,-361 733,-361 460,0 728,362 269,363 269,988 0,622 -269,986 -268,364 -728,364 z m 0,487 q 750,0 1178,-488 429,-487 429,-1349 Q 3566,888 3137,398 2709,-91 1959,-91 1206,-91 779,398 353,888 353,1747 q 0,862 426,1349 427,488 1180,488 z"
       transform="scale(0.015625)" /><path
       id="DejaVuSans-72"
       d="m 2631,2963 q -97,56 -211,82 -114,27 -251,27 -488,0 -749,-317 -261,-317 -261,-911 V 0 H 581 v 3500 h 578 v -544 q 182,319 472,473 291,155 707,155 59,0 131,-8 72,-7 159,-23 z"
       transform="scale(0.015625)" /><path
       id="DejaVuSans-41"
       d="M 2188,4044 1331,1722 h 1716 z m -357,622 h 716 L 4325,0 H 3669 L 3244,1197 H 1141 L 716,0 H 50 Z"
       transform="scale(0.015625)" /><path
       id="DejaVuSans-74"
       d="M 1172,4494 V 3500 H 2356 V 3053 H 1172 V 1153 q 0,-428 117,-550 117,-122 477,-122 h 590 V 0 H 1766 Q 1100,0 847,248 594,497 594,1153 V 3053 H 172 v 447 h 422 v 994 z"
       transform="scale(0.015625)" /><path
       id="m30a44a8c38"
       d="M 0,0 H -3.5"
       style="stroke:#000000;stroke-width:0.8" /><path
       id="DejaVuSans-30"
       d="m 2034,4250 q -487,0 -733,-480 -245,-479 -245,-1442 0,-959 245,-1439 246,-480 733,-480 491,0 736,480 246,480 246,1439 0,963 -246,1442 -245,480 -736,480 z m 0,500 q 785,0 1199,-621 414,-620 414,-1801 0,-1178 -414,-1799 -414,-620 -1199,-620 -784,0 -1198,620 -414,621 -414,1799 0,1181 414,1801 414,621 1198,621 z"
       transform="scale(0.015625)" /><path
       id="DejaVuSans-31"
       d="M 794,531 H 1825 V 4091 L 703,3866 v 575 l 1116,225 h 631 V 531 H 3481 V 0 H 794 Z"
       transform="scale(0.015625)" /><path
       id="DejaVuSans-32"
       d="M 1228,531 H 3431 V 0 H 469 v 531 q 359,372 979,998 621,627 780,809 303,340 423,576 121,236 121,464 0,372 -261,606 -261,235 -680,235 -297,0 -627,-103 -329,-103 -704,-313 v 638 q 381,153 712,231 332,78 607,78 725,0 1156,-363 431,-362 431,-968 0,-288 -108,-546 -107,-257 -392,-607 -78,-91 -497,-524 Q 1991,1309 1228,531 Z"
       transform="scale(0.015625)" /><path
       id="DejaVuSans-33"
       d="m 2597,2516 q 453,-97 707,-404 255,-306 255,-756 0,-690 -475,-1069 -475,-378 -1350,-378 -293,0 -604,58 -311,58 -642,174 v 609 q 262,-153 574,-231 313,-78 654,-78 593,0 904,234 311,234 311,681 0,413 -289,645 -289,233 -804,233 h -544 v 519 h 569 q 465,0 712,186 247,186 247,536 0,359 -255,551 -254,193 -729,193 -260,0 -557,-57 -297,-56 -653,-174 v 562 q 360,100 674,150 314,50 592,50 719,0 1137,-327 419,-326 419,-882 0,-388 -222,-655 -222,-267 -631,-370 z"
       transform="scale(0.015625)" /><path
       id="DejaVuSans-34"
       d="M 2419,4116 825,1625 h 1594 z m -166,550 h 794 V 1625 h 666 V 1100 H 3047 V 0 H 2419 V 1100 H 313 v 609 z"
       transform="scale(0.015625)" /><path
       id="DejaVuSans-35"
       d="M 691,4666 H 3169 V 4134 H 1269 V 2991 q 137,47 274,70 138,23 276,23 781,0 1237,-428 457,-428 457,-1159 Q 3513,744 3044,326 2575,-91 1722,-91 1428,-91 1123,-41 819,9 494,109 v 635 q 281,-153 581,-228 300,-75 634,-75 541,0 856,284 316,284 316,772 0,487 -316,771 -315,285 -856,285 -253,0 -505,-56 -251,-56 -513,-175 z"
       transform="scale(0.015625)" /><path
       id="DejaVuSans-53"
       d="m 3425,4513 v -616 q -359,172 -678,256 -319,85 -616,85 -515,0 -795,-200 -280,-200 -280,-569 0,-310 186,-468 186,-157 705,-254 l 381,-78 q 706,-135 1042,-474 336,-339 336,-907 0,-679 -455,-1029 -454,-350 -1332,-350 -331,0 -705,75 -373,75 -773,222 v 650 q 384,-215 753,-325 369,-109 725,-109 540,0 834,212 294,213 294,607 0,343 -211,537 -211,194 -692,291 l -385,75 q -706,140 -1022,440 -315,300 -315,835 0,619 436,975 436,356 1201,356 329,0 669,-60 341,-59 697,-177 z"
       transform="scale(0.015625)" /><path
       id="DejaVuSans-6e"
       d="M 3513,2113 V 0 h -575 v 2094 q 0,497 -194,743 -194,247 -581,247 -466,0 -735,-297 -269,-296 -269,-809 V 0 H 581 v 3500 h 578 v -544 q 207,316 486,472 280,156 646,156 603,0 912,-373 310,-373 310,-1098 z"
       transform="scale(0.015625)" /><path
       id="DejaVuSans-77"
       d="m 269,3500 h 575 l 719,-2731 715,2731 h 678 l 719,-2731 716,2731 h 575 L 4050,0 H 3372 L 2619,2869 1863,0 h -679 z"
       transform="scale(0.015625)" /><path
       id="DejaVuSans-20"
       transform="scale(0.015625)"
       d="" /><path
       id="DejaVuSans-44"
       d="M 1259,4147 V 519 h 763 q 966,0 1414,437 448,438 448,1382 0,937 -448,1373 -448,436 -1414,436 z m -631,519 h 1297 q 1356,0 1990,-564 635,-564 635,-1764 Q 4550,1131 3912,565 3275,0 1925,0 H 628 Z"
       transform="scale(0.015625)" /><path
       id="DejaVuSans-70"
       d="M 1159,525 V -1331 H 581 v 4831 h 578 v -531 q 182,312 458,463 277,152 661,152 638,0 1036,-506 399,-506 399,-1331 0,-825 -399,-1332 -398,-506 -1036,-506 -384,0 -661,152 -276,152 -458,464 z m 1957,1222 q 0,634 -261,995 -261,361 -717,361 -457,0 -718,-361 -261,-361 -261,-995 0,-634 261,-995 261,-361 718,-361 456,0 717,361 261,361 261,995 z"
       transform="scale(0.015625)" /><path
       id="DejaVuSans-68"
       d="M 3513,2113 V 0 h -575 v 2094 q 0,497 -194,743 -194,247 -581,247 -466,0 -735,-297 -269,-296 -269,-809 V 0 H 581 v 4863 h 578 V 2956 q 207,316 486,472 280,156 646,156 603,0 912,-373 310,-373 310,-1098 z"
       transform="scale(0.015625)" /><path
       id="DejaVuSans-5b"
       d="M 550,4863 H 1875 V 4416 H 1125 V -397 h 750 V -844 H 550 Z"
       transform="scale(0.015625)" /><path
       id="DejaVuSans-63"
       d="m 3122,3366 v -538 q -244,135 -489,202 -245,67 -495,67 -560,0 -870,-355 -309,-354 -309,-995 0,-641 309,-996 310,-354 870,-354 250,0 495,67 245,67 489,202 V 134 Q 2881,22 2623,-34 2366,-91 2075,-91 1284,-91 818,406 353,903 353,1747 q 0,856 470,1346 471,491 1290,491 265,0 518,-55 253,-54 491,-163 z"
       transform="scale(0.015625)" /><path
       id="DejaVuSans-6d"
       d="m 3328,2828 q 216,388 516,572 300,184 706,184 547,0 844,-383 297,-382 297,-1088 V 0 h -578 v 2094 q 0,503 -179,746 -178,244 -543,244 -447,0 -707,-297 -259,-296 -259,-809 V 0 h -578 v 2094 q 0,506 -178,748 -178,242 -550,242 -441,0 -701,-298 -259,-298 -259,-808 V 0 H 581 v 3500 h 578 v -544 q 197,322 472,475 275,153 653,153 382,0 649,-194 267,-193 395,-562 z"
       transform="scale(0.015625)" /><path
       id="DejaVuSans-5d"
       d="M 1947,4863 V -844 H 622 v 447 h 747 V 4416 H 622 v 447 z"
       transform="scale(0.015625)" /><path
       id="me5118428b1"
       d="M 0,0 H 3.5"
       style="stroke:#000000;stroke-width:0.8" /><path
       id="DejaVuSans-36"
       d="m 2113,2584 q -425,0 -674,-291 -248,-290 -248,-796 0,-503 248,-796 249,-292 674,-292 425,0 673,292 248,293 248,796 0,506 -248,796 -248,291 -673,291 z m 1253,1979 v -575 q -238,112 -480,171 -242,60 -480,60 -625,0 -955,-422 -329,-422 -376,-1275 184,272 462,417 279,145 613,145 703,0 1111,-427 408,-426 408,-1160 0,-719 -425,-1154 -425,-434 -1131,-434 -810,0 -1238,620 -428,621 -428,1799 0,1106 525,1764 525,658 1409,658 238,0 480,-47 242,-47 505,-140 z"
       transform="scale(0.015625)" /><path
       id="DejaVuSans-38"
       d="m 2034,2216 q -450,0 -708,-241 -257,-241 -257,-662 0,-422 257,-663 258,-241 708,-241 450,0 709,242 260,243 260,662 0,421 -258,662 -257,241 -711,241 z m -631,268 q -406,100 -633,378 -226,279 -226,679 0,559 398,884 399,325 1092,325 697,0 1094,-325 397,-325 397,-884 0,-400 -227,-679 -226,-278 -629,-378 456,-106 710,-416 255,-309 255,-755 Q 3634,634 3220,271 2806,-91 2034,-91 1263,-91 848,271 434,634 434,1313 q 0,446 256,755 257,310 713,416 z m -231,997 q 0,-362 226,-565 227,-203 636,-203 407,0 636,203 230,203 230,565 0,363 -230,566 -229,203 -636,203 -409,0 -636,-203 -226,-203 -226,-566 z"
       transform="scale(0.015625)" /><path
       id="DejaVuSans-57"
       d="m 213,4666 h 637 l 981,-3944 978,3944 h 710 l 981,-3944 978,3944 h 641 L 4947,0 H 4153 L 3169,4050 2175,0 h -794 z"
       transform="scale(0.015625)" /><path
       id="DejaVuSans-45"
       d="M 628,4666 H 3578 V 4134 H 1259 V 2753 H 3481 V 2222 H 1259 V 531 H 3634 V 0 H 628 Z"
       transform="scale(0.015625)" /><clipPath
       id="pb3002b7cf6"><rect
         x="54"
         y="34.560001"
         width="334.79999"
         height="221.75999"
         id="rect1051" /></clipPath></defs><g
     inkscape:label="Layer 1"
     inkscape:groupmode="layer"
     id="layer1"
     transform="translate(-31.543432,-6.9216099)" /><g
     id="figure_1"
     transform="scale(0.35277777)"><g
       id="patch_1"><path
         d="M 0,288 H 432 V 0 H 0 Z"
         style="fill:#ffffff"
         id="path602" /></g><g
       id="axes_1"><g
         id="patch_2"
         transform="translate(-3.1214134,-1.7836648)"><path
           d="M 54,256.32 H 388.8 V 34.56 H 54 Z"
           style="fill:#ffffff"
           id="path605" /></g><g
         id="patch_3"><path
           d="M 70.74,256.32 H 137.7 V 158.40443 H 70.74 Z"
           clip-path="url(#pb3002b7cf6)"
           style="fill:#3274a1"
           id="path608" /></g><g
         id="patch_4"><path
           d="M 0,0 Z"
           clip-path="url(#pb3002b7cf6)"
           style="fill:#3274a1"
           id="path611" /></g><g
         id="patch_5"><path
           d="M 0,0 Z"
           clip-path="url(#pb3002b7cf6)"
           style="fill:#e1812c"
           id="path614" /></g><g
         id="patch_6"
         transform="translate(-67.110388,-0.4459162)"><path
           d="m 305.1,256.32 h 66.96 V 116.08941 H 305.1 Z"
           clip-path="url(#pb3002b7cf6)"
           style="fill:#e1812c"
           id="path617" /></g><g
         id="matplotlib.axis_1"><g
           id="xtick_1"><g
             id="line2d_1"><defs
               id="defs621"><path
                 id="path1112"
                 d="M 0,0 V 3.5"
                 style="stroke:#000000;stroke-width:0.8" /></defs><g
               id="g625"><use
                 xlink:href="#mbf5ea5411c"
                 x="137.7"
                 y="256.32001"
                 style="stroke:#000000;stroke-width:0.8"
                 id="use623" /></g></g><g
             id="text_1"><!-- Before --><g
               transform="matrix(0.1,0,0,-0.1,121.35391,270.91844)"
               id="g647"><defs
                 id="defs633"><path
                   id="path1118"
                   d="M 1259,2228 V 519 h 1013 q 509,0 754,211 246,211 246,645 0,438 -246,645 -245,208 -754,208 z m 0,1919 V 2741 h 935 q 462,0 688,173 227,174 227,530 0,353 -227,528 -226,175 -688,175 z m -631,519 h 1613 q 722,0 1112,-300 391,-300 391,-853 0,-429 -200,-682 -200,-253 -588,-315 466,-100 724,-418 258,-317 258,-792 0,-625 -425,-966 Q 3088,0 2303,0 H 628 Z"
                   transform="scale(0.015625)" /><path
                   id="path1120"
                   d="M 3597,1894 V 1613 H 953 q 38,-594 358,-905 320,-311 892,-311 331,0 642,81 311,81 618,244 V 178 Q 3153,47 2828,-22 2503,-91 2169,-91 1331,-91 842,396 353,884 353,1716 q 0,859 464,1363 464,505 1252,505 706,0 1117,-455 411,-454 411,-1235 z m -575,169 q -6,471 -264,752 -258,282 -683,282 -481,0 -770,-272 -289,-272 -333,-766 z"
                   transform="scale(0.015625)" /><path
                   id="path1122"
                   d="m 2375,4863 v -479 h -550 q -309,0 -430,-125 -120,-125 -120,-450 v -309 h 947 V 3053 H 1275 V 0 H 697 V 3053 H 147 v 447 h 550 v 244 q 0,584 272,851 272,268 862,268 z"
                   transform="scale(0.015625)" /><path
                   id="path1124"
                   d="m 1959,3097 q -462,0 -731,-361 -269,-361 -269,-989 0,-628 267,-989 268,-361 733,-361 460,0 728,362 269,363 269,988 0,622 -269,986 -268,364 -728,364 z m 0,487 q 750,0 1178,-488 429,-487 429,-1349 Q 3566,888 3137,398 2709,-91 1959,-91 1206,-91 779,398 353,888 353,1747 q 0,862 426,1349 427,488 1180,488 z"
                   transform="scale(0.015625)" /><path
                   id="path1126"
                   d="m 2631,2963 q -97,56 -211,82 -114,27 -251,27 -488,0 -749,-317 -261,-317 -261,-911 V 0 H 581 v 3500 h 578 v -544 q 182,319 472,473 291,155 707,155 59,0 131,-8 72,-7 159,-23 z"
                   transform="scale(0.015625)" /></defs><use
                 xlink:href="#DejaVuSans-42"
                 id="use635" /><use
                 xlink:href="#DejaVuSans-65"
                 x="68.603516"
                 id="use637" /><use
                 xlink:href="#DejaVuSans-66"
                 x="130.12695"
                 id="use639" /><use
                 xlink:href="#DejaVuSans-6f"
                 x="165.33203"
                 id="use641" /><use
                 xlink:href="#DejaVuSans-72"
                 x="226.51367"
                 id="use643" /><use
                 xlink:href="#DejaVuSans-65"
                 x="265.37695"
                 id="use645" /></g></g></g><g
           id="xtick_2"><g
             id="line2d_2"><g
               id="g653"><use
                 xlink:href="#mbf5ea5411c"
                 x="305.10001"
                 y="256.32001"
                 style="stroke:#000000;stroke-width:0.8"
                 id="use651" /></g></g><g
             id="text_2"><!-- After --><g
               transform="matrix(0.1,0,0,-0.1,293.09609,270.91844)"
               id="g670"><defs
                 id="defs658"><path
                   id="path1141"
                   d="M 2188,4044 1331,1722 h 1716 z m -357,622 h 716 L 4325,0 H 3669 L 3244,1197 H 1141 L 716,0 H 50 Z"
                   transform="scale(0.015625)" /><path
                   id="path1143"
                   d="M 1172,4494 V 3500 H 2356 V 3053 H 1172 V 1153 q 0,-428 117,-550 117,-122 477,-122 h 590 V 0 H 1766 Q 1100,0 847,248 594,497 594,1153 V 3053 H 172 v 447 h 422 v 994 z"
                   transform="scale(0.015625)" /></defs><use
                 xlink:href="#DejaVuSans-41"
                 id="use660" /><use
                 xlink:href="#DejaVuSans-66"
                 x="64.783203"
                 id="use662" /><use
                 xlink:href="#DejaVuSans-74"
                 x="98.238281"
                 id="use664" /><use
                 xlink:href="#DejaVuSans-65"
                 x="137.44727"
                 id="use666" /><use
                 xlink:href="#DejaVuSans-72"
                 x="198.9707"
                 id="use668" /></g></g></g></g><g
         id="matplotlib.axis_2"><g
           id="ytick_1"><g
             id="line2d_3"><defs
               id="defs701"><path
                 id="path1168"
                 d="M 0,0 H -3.5"
                 style="stroke:#000000;stroke-width:0.8" /></defs><g
               id="g705"><use
                 xlink:href="#m30a44a8c38"
                 x="54"
                 y="256.32001"
                 style="stroke:#000000;stroke-width:0.8"
                 id="use703" /></g></g><g
             id="text_4"><!-- 0 --><g
               transform="matrix(0.1,0,0,-0.1,40.6375,260.11922)"
               id="g713"><defs
                 id="defs709"><path
                   id="path1174"
                   d="m 2034,4250 q -487,0 -733,-480 -245,-479 -245,-1442 0,-959 245,-1439 246,-480 733,-480 491,0 736,480 246,480 246,1439 0,963 -246,1442 -245,480 -736,480 z m 0,500 q 785,0 1199,-621 414,-620 414,-1801 0,-1178 -414,-1799 -414,-620 -1199,-620 -784,0 -1198,620 -414,621 -414,1799 0,1181 414,1801 414,621 1198,621 z"
                   transform="scale(0.015625)" /></defs><use
                 xlink:href="#DejaVuSans-30"
                 id="use711" /></g></g></g><g
           id="ytick_2"><g
             id="line2d_4"><g
               id="g719"><use
                 xlink:href="#m30a44a8c38"
                 x="54"
                 y="211.968"
                 style="stroke:#000000;stroke-width:0.8"
                 id="use717" /></g></g><g
             id="text_5"><!-- 10 --><g
               transform="matrix(0.1,0,0,-0.1,34.275,215.76722)"
               id="g729"><defs
                 id="defs723"><path
                   id="path1184"
                   d="M 794,531 H 1825 V 4091 L 703,3866 v 575 l 1116,225 h 631 V 531 H 3481 V 0 H 794 Z"
                   transform="scale(0.015625)" /></defs><use
                 xlink:href="#DejaVuSans-31"
                 id="use725" /><use
                 xlink:href="#DejaVuSans-30"
                 x="63.623047"
                 id="use727" /></g></g></g><g
           id="ytick_3"><g
             id="line2d_5"><g
               id="g735"><use
                 xlink:href="#m30a44a8c38"
                 x="54"
                 y="167.616"
                 style="stroke:#000000;stroke-width:0.8"
                 id="use733" /></g></g><g
             id="text_6"><!-- 20 --><g
               transform="matrix(0.1,0,0,-0.1,34.275,171.41522)"
               id="g745"><defs
                 id="defs739"><path
                   id="path1195"
                   d="M 1228,531 H 3431 V 0 H 469 v 531 q 359,372 979,998 621,627 780,809 303,340 423,576 121,236 121,464 0,372 -261,606 -261,235 -680,235 -297,0 -627,-103 -329,-103 -704,-313 v 638 q 381,153 712,231 332,78 607,78 725,0 1156,-363 431,-362 431,-968 0,-288 -108,-546 -107,-257 -392,-607 -78,-91 -497,-524 Q 1991,1309 1228,531 Z"
                   transform="scale(0.015625)" /></defs><use
                 xlink:href="#DejaVuSans-32"
                 id="use741" /><use
                 xlink:href="#DejaVuSans-30"
                 x="63.623047"
                 id="use743" /></g></g></g><g
           id="ytick_4"><g
             id="line2d_6"><g
               id="g751"><use
                 xlink:href="#m30a44a8c38"
                 x="54"
                 y="123.264"
                 style="stroke:#000000;stroke-width:0.8"
                 id="use749" /></g></g><g
             id="text_7"><!-- 30 --><g
               transform="matrix(0.1,0,0,-0.1,34.275,127.06322)"
               id="g761"><defs
                 id="defs755"><path
                   id="path1206"
                   d="m 2597,2516 q 453,-97 707,-404 255,-306 255,-756 0,-690 -475,-1069 -475,-378 -1350,-378 -293,0 -604,58 -311,58 -642,174 v 609 q 262,-153 574,-231 313,-78 654,-78 593,0 904,234 311,234 311,681 0,413 -289,645 -289,233 -804,233 h -544 v 519 h 569 q 465,0 712,186 247,186 247,536 0,359 -255,551 -254,193 -729,193 -260,0 -557,-57 -297,-56 -653,-174 v 562 q 360,100 674,150 314,50 592,50 719,0 1137,-327 419,-326 419,-882 0,-388 -222,-655 -222,-267 -631,-370 z"
                   transform="scale(0.015625)" /></defs><use
                 xlink:href="#DejaVuSans-33"
                 id="use757" /><use
                 xlink:href="#DejaVuSans-30"
                 x="63.623047"
                 id="use759" /></g></g></g><g
           id="ytick_5"><g
             id="line2d_7"><g
               id="g767"><use
                 xlink:href="#m30a44a8c38"
                 x="54"
                 y="78.912003"
                 style="stroke:#000000;stroke-width:0.8"
                 id="use765" /></g></g><g
             id="text_8"><!-- 40 --><g
               transform="matrix(0.1,0,0,-0.1,34.275,82.711219)"
               id="g777"><defs
                 id="defs771"><path
                   id="path1217"
                   d="M 2419,4116 825,1625 h 1594 z m -166,550 h 794 V 1625 h 666 V 1100 H 3047 V 0 H 2419 V 1100 H 313 v 609 z"
                   transform="scale(0.015625)" /></defs><use
                 xlink:href="#DejaVuSans-34"
                 id="use773" /><use
                 xlink:href="#DejaVuSans-30"
                 x="63.623047"
                 id="use775" /></g></g></g><g
           id="ytick_6"><g
             id="line2d_8"><g
               id="g783"><use
                 xlink:href="#m30a44a8c38"
                 x="54"
                 y="34.560001"
                 style="stroke:#000000;stroke-width:0.8"
                 id="use781" /></g></g><g
             id="text_9"><!-- 50 --><g
               transform="matrix(0.1,0,0,-0.1,34.275,38.359219)"
               id="g793"><defs
                 id="defs787"><path
                   id="path1228"
                   d="M 691,4666 H 3169 V 4134 H 1269 V 2991 q 137,47 274,70 138,23 276,23 781,0 1237,-428 457,-428 457,-1159 Q 3513,744 3044,326 2575,-91 1722,-91 1428,-91 1123,-41 819,9 494,109 v 635 q 281,-153 581,-228 300,-75 634,-75 541,0 856,284 316,284 316,772 0,487 -316,771 -315,285 -856,285 -253,0 -505,-56 -251,-56 -513,-175 z"
                   transform="scale(0.015625)" /></defs><use
                 xlink:href="#DejaVuSans-35"
                 id="use789" /><use
                 xlink:href="#DejaVuSans-30"
                 x="63.623047"
                 id="use791" /></g></g></g><g
           id="text_10"><!-- Snow Depth [cm] --><g
             transform="matrix(0,-0.1,-0.1,0,28.195312,188.86031)"
             id="g840"><defs
               id="defs808"><path
                 id="path1236"
                 d="m 3425,4513 v -616 q -359,172 -678,256 -319,85 -616,85 -515,0 -795,-200 -280,-200 -280,-569 0,-310 186,-468 186,-157 705,-254 l 381,-78 q 706,-135 1042,-474 336,-339 336,-907 0,-679 -455,-1029 -454,-350 -1332,-350 -331,0 -705,75 -373,75 -773,222 v 650 q 384,-215 753,-325 369,-109 725,-109 540,0 834,212 294,213 294,607 0,343 -211,537 -211,194 -692,291 l -385,75 q -706,140 -1022,440 -315,300 -315,835 0,619 436,975 436,356 1201,356 329,0 669,-60 341,-59 697,-177 z"
                 transform="scale(0.015625)" /><path
                 id="path1238"
                 d="M 3513,2113 V 0 h -575 v 2094 q 0,497 -194,743 -194,247 -581,247 -466,0 -735,-297 -269,-296 -269,-809 V 0 H 581 v 3500 h 578 v -544 q 207,316 486,472 280,156 646,156 603,0 912,-373 310,-373 310,-1098 z"
                 transform="scale(0.015625)" /><path
                 id="path1240"
                 d="m 269,3500 h 575 l 719,-2731 715,2731 h 678 l 719,-2731 716,2731 h 575 L 4050,0 H 3372 L 2619,2869 1863,0 h -679 z"
                 transform="scale(0.015625)" /><path
                 id="path1242"
                 transform="scale(0.015625)"
                 d="" /><path
                 id="path1244"
                 d="M 1259,4147 V 519 h 763 q 966,0 1414,437 448,438 448,1382 0,937 -448,1373 -448,436 -1414,436 z m -631,519 h 1297 q 1356,0 1990,-564 635,-564 635,-1764 Q 4550,1131 3912,565 3275,0 1925,0 H 628 Z"
                 transform="scale(0.015625)" /><path
                 id="path1246"
                 d="M 1159,525 V -1331 H 581 v 4831 h 578 v -531 q 182,312 458,463 277,152 661,152 638,0 1036,-506 399,-506 399,-1331 0,-825 -399,-1332 -398,-506 -1036,-506 -384,0 -661,152 -276,152 -458,464 z m 1957,1222 q 0,634 -261,995 -261,361 -717,361 -457,0 -718,-361 -261,-361 -261,-995 0,-634 261,-995 261,-361 718,-361 456,0 717,361 261,361 261,995 z"
                 transform="scale(0.015625)" /><path
                 id="path1248"
                 d="M 3513,2113 V 0 h -575 v 2094 q 0,497 -194,743 -194,247 -581,247 -466,0 -735,-297 -269,-296 -269,-809 V 0 H 581 v 4863 h 578 V 2956 q 207,316 486,472 280,156 646,156 603,0 912,-373 310,-373 310,-1098 z"
                 transform="scale(0.015625)" /><path
                 id="path1250"
                 d="M 550,4863 H 1875 V 4416 H 1125 V -397 h 750 V -844 H 550 Z"
                 transform="scale(0.015625)" /><path
                 id="path1252"
                 d="m 3122,3366 v -538 q -244,135 -489,202 -245,67 -495,67 -560,0 -870,-355 -309,-354 -309,-995 0,-641 309,-996 310,-354 870,-354 250,0 495,67 245,67 489,202 V 134 Q 2881,22 2623,-34 2366,-91 2075,-91 1284,-91 818,406 353,903 353,1747 q 0,856 470,1346 471,491 1290,491 265,0 518,-55 253,-54 491,-163 z"
                 transform="scale(0.015625)" /><path
                 id="path1254"
                 d="m 3328,2828 q 216,388 516,572 300,184 706,184 547,0 844,-383 297,-382 297,-1088 V 0 h -578 v 2094 q 0,503 -179,746 -178,244 -543,244 -447,0 -707,-297 -259,-296 -259,-809 V 0 h -578 v 2094 q 0,506 -178,748 -178,242 -550,242 -441,0 -701,-298 -259,-298 -259,-808 V 0 H 581 v 3500 h 578 v -544 q 197,322 472,475 275,153 653,153 382,0 649,-194 267,-193 395,-562 z"
                 transform="scale(0.015625)" /><path
                 id="path1256"
                 d="M 1947,4863 V -844 H 622 v 447 h 747 V 4416 H 622 v 447 z"
                 transform="scale(0.015625)" /></defs><use
               xlink:href="#DejaVuSans-53"
               id="use810" /><use
               xlink:href="#DejaVuSans-6e"
               x="63.476562"
               id="use812" /><use
               xlink:href="#DejaVuSans-6f"
               x="126.85547"
               id="use814" /><use
               xlink:href="#DejaVuSans-77"
               x="188.03711"
               id="use816" /><use
               xlink:href="#DejaVuSans-20"
               x="269.82422"
               id="use818" /><use
               xlink:href="#DejaVuSans-44"
               x="301.61133"
               id="use820" /><use
               xlink:href="#DejaVuSans-65"
               x="378.61328"
               id="use822" /><use
               xlink:href="#DejaVuSans-70"
               x="440.13672"
               id="use824" /><use
               xlink:href="#DejaVuSans-74"
               x="503.61328"
               id="use826" /><use
               xlink:href="#DejaVuSans-68"
               x="542.82227"
               id="use828" /><use
               xlink:href="#DejaVuSans-20"
               x="606.20117"
               id="use830" /><use
               xlink:href="#DejaVuSans-5b"
               x="637.98828"
               id="use832" /><use
               xlink:href="#DejaVuSans-63"
               x="677.00195"
               id="use834" /><use
               xlink:href="#DejaVuSans-6d"
               x="731.98242"
               id="use836" /><use
               xlink:href="#DejaVuSans-5d"
               x="829.39453"
               id="use838" /></g></g></g><g
         id="patch_7"><path
           d="M 54,256.32 V 34.56"
           style="fill:none;stroke:#000000;stroke-width:0.8;stroke-linecap:square;stroke-linejoin:miter"
           id="path844" /></g><g
         id="patch_8"><path
           d="M 388.8,256.32 V 34.56"
           style="fill:none;stroke:#000000;stroke-width:0.8;stroke-linecap:square;stroke-linejoin:miter"
           id="path847" /></g><g
         id="patch_9"><path
           d="M 54,256.32 H 388.8"
           style="fill:none;stroke:#000000;stroke-width:0.8;stroke-linecap:square;stroke-linejoin:miter"
           id="path850" /></g><g
         id="patch_10"><path
           d="M 54,34.56 H 388.8"
           style="fill:none;stroke:#000000;stroke-width:0.8;stroke-linecap:square;stroke-linejoin:miter"
           id="path853" /></g></g><g
       id="axes_2"><g
         id="patch_14"
         transform="matrix(0.5000558,0,0,1.0031527,102.04955,-1.1497644)"
         style="opacity:0.4;fill:#3274a1;fill-opacity:1;stroke:none;stroke-opacity:1"><path
           d="M 70.74,256.32 H 204.66 V 190.67904 H 70.74 Z"
           clip-path="url(#pb3002b7cf6)"
           style="fill:#3274a1;fill-opacity:1;stroke:none;stroke-linejoin:miter;stroke-opacity:1"
           id="path920" /></g><g
         id="patch_15"
         transform="matrix(0.50316126,0,0,1.0010547,185.25217,-0.16733917)"
         style="opacity:0.4;fill:#e1812c;fill-opacity:1;stroke:#e1812c;stroke-opacity:1"><path
           d="M 238.14,256.32 H 372.06 V 61.497318 H 238.14 Z"
           clip-path="url(#pb3002b7cf6)"
           style="fill:#e1812c;fill-opacity:1;stroke:#e1812c;stroke-linejoin:miter;stroke-opacity:1"
           id="path923" /></g><g
         id="matplotlib.axis_3"><g
           id="ytick_7"><g
             id="line2d_9"><defs
               id="defs927"><path
                 id="path1325"
                 d="M 0,0 H 3.5"
                 style="stroke:#000000;stroke-width:0.8" /></defs><g
               id="g931"><use
                 xlink:href="#me5118428b1"
                 x="388.79999"
                 y="256.32001"
                 style="stroke:#000000;stroke-width:0.8"
                 id="use929" /></g></g><g
             id="text_14"><!-- 0 --><g
               transform="matrix(0.1,0,0,-0.1,395.8,260.11922)"
               id="g936"><use
                 xlink:href="#DejaVuSans-30"
                 id="use934" /></g></g></g><g
           id="ytick_8"><g
             id="line2d_10"><g
               id="g942"><use
                 xlink:href="#me5118428b1"
                 x="388.79999"
                 y="211.968"
                 style="stroke:#000000;stroke-width:0.8"
                 id="use940" /></g></g><g
             id="text_15"><!-- 20 --><g
               transform="matrix(0.1,0,0,-0.1,395.8,215.76722)"
               id="g949"><use
                 xlink:href="#DejaVuSans-32"
                 id="use945" /><use
                 xlink:href="#DejaVuSans-30"
                 x="63.623047"
                 id="use947" /></g></g></g><g
           id="ytick_9"><g
             id="line2d_11"><g
               id="g955"><use
                 xlink:href="#me5118428b1"
                 x="388.79999"
                 y="167.616"
                 style="stroke:#000000;stroke-width:0.8"
                 id="use953" /></g></g><g
             id="text_16"><!-- 40 --><g
               transform="matrix(0.1,0,0,-0.1,395.8,171.41522)"
               id="g962"><use
                 xlink:href="#DejaVuSans-34"
                 id="use958" /><use
                 xlink:href="#DejaVuSans-30"
                 x="63.623047"
                 id="use960" /></g></g></g><g
           id="ytick_10"><g
             id="line2d_12"><g
               id="g968"><use
                 xlink:href="#me5118428b1"
                 x="388.79999"
                 y="123.264"
                 style="stroke:#000000;stroke-width:0.8"
                 id="use966" /></g></g><g
             id="text_17"><!-- 60 --><g
               transform="matrix(0.1,0,0,-0.1,395.8,127.06322)"
               id="g978"><defs
                 id="defs972"><path
                   id="path1354"
                   d="m 2113,2584 q -425,0 -674,-291 -248,-290 -248,-796 0,-503 248,-796 249,-292 674,-292 425,0 673,292 248,293 248,796 0,506 -248,796 -248,291 -673,291 z m 1253,1979 v -575 q -238,112 -480,171 -242,60 -480,60 -625,0 -955,-422 -329,-422 -376,-1275 184,272 462,417 279,145 613,145 703,0 1111,-427 408,-426 408,-1160 0,-719 -425,-1154 -425,-434 -1131,-434 -810,0 -1238,620 -428,621 -428,1799 0,1106 525,1764 525,658 1409,658 238,0 480,-47 242,-47 505,-140 z"
                   transform="scale(0.015625)" /></defs><use
                 xlink:href="#DejaVuSans-36"
                 id="use974" /><use
                 xlink:href="#DejaVuSans-30"
                 x="63.623047"
                 id="use976" /></g></g></g><g
           id="ytick_11"><g
             id="line2d_13"><g
               id="g984"><use
                 xlink:href="#me5118428b1"
                 x="388.79999"
                 y="78.912003"
                 style="stroke:#000000;stroke-width:0.8"
                 id="use982" /></g></g><g
             id="text_18"><!-- 80 --><g
               transform="matrix(0.1,0,0,-0.1,395.8,82.711219)"
               id="g994"><defs
                 id="defs988"><path
                   id="path1365"
                   d="m 2034,2216 q -450,0 -708,-241 -257,-241 -257,-662 0,-422 257,-663 258,-241 708,-241 450,0 709,242 260,243 260,662 0,421 -258,662 -257,241 -711,241 z m -631,268 q -406,100 -633,378 -226,279 -226,679 0,559 398,884 399,325 1092,325 697,0 1094,-325 397,-325 397,-884 0,-400 -227,-679 -226,-278 -629,-378 456,-106 710,-416 255,-309 255,-755 Q 3634,634 3220,271 2806,-91 2034,-91 1263,-91 848,271 434,634 434,1313 q 0,446 256,755 257,310 713,416 z m -231,997 q 0,-362 226,-565 227,-203 636,-203 407,0 636,203 230,203 230,565 0,363 -230,566 -229,203 -636,203 -409,0 -636,-203 -226,-203 -226,-566 z"
                   transform="scale(0.015625)" /></defs><use
                 xlink:href="#DejaVuSans-38"
                 id="use990" /><use
                 xlink:href="#DejaVuSans-30"
                 x="63.623047"
                 id="use992" /></g></g></g><g
           id="ytick_12"><g
             id="line2d_14"><g
               id="g1000"><use
                 xlink:href="#me5118428b1"
                 x="388.79999"
                 y="34.560001"
                 style="stroke:#000000;stroke-width:0.8"
                 id="use998" /></g></g><g
             id="text_19"><!-- 100 --><g
               transform="matrix(0.1,0,0,-0.1,395.8,38.359219)"
               id="g1009"><use
                 xlink:href="#DejaVuSans-31"
                 id="use1003" /><use
                 xlink:href="#DejaVuSans-30"
                 x="63.623047"
                 id="use1005" /><use
                 xlink:href="#DejaVuSans-30"
                 x="127.24609"
                 id="use1007" /></g></g></g><g
           id="text_20"><!-- SWE [mm] --><g
             transform="matrix(0,-0.1,-0.1,0,426.48594,171.94859)"
             id="g1033"><defs
               id="defs1015"><path
                 id="path1382"
                 d="m 213,4666 h 637 l 981,-3944 978,3944 h 710 l 981,-3944 978,3944 h 641 L 4947,0 H 4153 L 3169,4050 2175,0 h -794 z"
                 transform="scale(0.015625)" /><path
                 id="path1384"
                 d="M 628,4666 H 3578 V 4134 H 1259 V 2753 H 3481 V 2222 H 1259 V 531 H 3634 V 0 H 628 Z"
                 transform="scale(0.015625)" /></defs><use
               xlink:href="#DejaVuSans-53"
               id="use1017" /><use
               xlink:href="#DejaVuSans-57"
               x="63.476562"
               id="use1019" /><use
               xlink:href="#DejaVuSans-45"
               x="162.35352"
               id="use1021" /><use
               xlink:href="#DejaVuSans-20"
               x="225.53711"
               id="use1023" /><use
               xlink:href="#DejaVuSans-5b"
               x="257.32422"
               id="use1025" /><use
               xlink:href="#DejaVuSans-6d"
               x="296.33789"
               id="use1027" /><use
               xlink:href="#DejaVuSans-6d"
               x="393.75"
               id="use1029" /><use
               xlink:href="#DejaVuSans-5d"
               x="491.16211"
               id="use1031" /></g></g></g><g
         id="patch_16"><path
           d="M 54,256.32 V 34.56"
           style="fill:none;stroke:#000000;stroke-width:0.8;stroke-linecap:square;stroke-linejoin:miter"
           id="path1037" /></g><g
         id="patch_17"><path
           d="M 388.8,256.32 V 34.56"
           style="fill:none;stroke:#000000;stroke-width:0.8;stroke-linecap:square;stroke-linejoin:miter"
           id="path1040" /></g><g
         id="patch_18"><path
           d="M 54,256.32 H 388.8"
           style="fill:none;stroke:#000000;stroke-width:0.8;stroke-linecap:square;stroke-linejoin:miter"
           id="path1043" /></g><g
         id="patch_19"><path
           d="M 54,34.56 H 388.8"
           style="fill:none;stroke:#000000;stroke-width:0.8;stroke-linecap:square;stroke-linejoin:miter"
           id="path1046" /></g></g></g></svg>
